<svg width="24" height="24" viewBox="0 0 24 24" fill="none" xmlns="http://www.w3.org/2000/svg">
<path fill-rule="evenodd" clip-rule="evenodd" d="M3.75494 8.07947L3.27907 9.98529H0.837209C0.374835 9.98529 0 10.3606 0 10.8235C0 11.2865 0.374835 11.6618 0.837209 11.6618H23.1628C23.6252 11.6618 24 11.2865 24 10.8235C24 10.3606 23.6252 9.98529 23.1628 9.98529H20.7209L20.2451 8.07947C19.6359 5.64001 19.3314 4.42027 18.423 3.71013C17.5145 3 16.2588 3 13.7473 3H10.2527C7.74117 3 6.48545 3 5.57703 3.71013C4.66863 4.42027 4.36406 5.64001 3.75494 8.07947ZM5.86047 22C7.67237 22 9.1962 20.7651 9.63814 19.09L10.8768 18.4699C11.5839 18.116 12.4161 18.116 13.1232 18.4699L14.3618 19.09C14.8038 20.7651 16.3276 22 18.1395 22C20.2973 22 22.0465 20.2486 22.0465 18.0882C22.0465 15.9278 20.2973 14.1765 18.1395 14.1765C16.2864 14.1765 14.7347 15.4682 14.3334 17.2014L13.8721 16.9705C12.6935 16.3805 11.3065 16.3805 10.1279 16.9705L9.66661 17.2014C9.26537 15.4682 7.71359 14.1765 5.86047 14.1765C3.7027 14.1765 1.95349 15.9278 1.95349 18.0882C1.95349 20.2486 3.7027 22 5.86047 22Z" fill="white"/>
</svg>
