<svg width="24" height="24" viewBox="0 0 24 24" fill="none" xmlns="http://www.w3.org/2000/svg">
<path d="M11.9999 0C5.37262 0 0 5.37267 0 11.9999C0 18.6269 5.37254 24 11.9997 24C18.6269 24 24 18.6269 24 11.9999C24 5.37267 18.627 0 11.9999 0ZM15.1379 17.456C14.9191 17.6747 14.6323 17.7841 14.3458 17.7841C14.0592 17.7841 13.7723 17.6747 13.5536 17.4558L9.05005 12.9525C8.98301 12.9096 8.91893 12.8602 8.86061 12.8016C8.63693 12.5777 8.52901 12.2833 8.53445 11.9901C8.52925 11.6968 8.63693 11.4021 8.86061 11.1784C8.91933 11.12 8.98301 11.0705 9.05005 11.0276L13.5335 6.54417C13.9711 6.10698 14.6807 6.10682 15.1181 6.54441C15.5557 6.98177 15.5557 7.6912 15.1181 8.12904L11.2569 11.9902L15.138 15.8714C15.5755 16.309 15.5755 17.0184 15.1379 17.456Z" fill="white"/>
</svg>
