<svg width="24" height="24" viewBox="0 0 24 24" fill="none" xmlns="http://www.w3.org/2000/svg">
<path fill-rule="evenodd" clip-rule="evenodd" d="M17.3907 7.01607C17.3907 9.78632 15.201 12.0321 12.5 12.0321C9.799 12.0321 7.60938 9.78632 7.60938 7.01607C7.60938 4.24577 9.799 2 12.5 2C13.7972 2 15.0411 2.52848 15.9582 3.46917C16.8754 4.40987 17.3907 5.68572 17.3907 7.01607Z" stroke="white" stroke-width="1.5" stroke-linecap="round" stroke-linejoin="round"/>
<path d="M13.4405 12.0323C13.4405 11.5128 13.0194 11.0917 12.5 11.0917C11.9806 11.0917 11.5595 11.5128 11.5595 12.0323H13.4405ZM11.5595 19.5564C11.5595 20.0758 11.9806 20.4969 12.5 20.4969C13.0194 20.4969 13.4405 20.0758 13.4405 19.5564H11.5595ZM12.3978 4.09111C11.8814 4.14759 11.5086 4.61197 11.5651 5.12831C11.6216 5.64466 12.0859 6.01746 12.6023 5.96098L12.3978 4.09111ZM14.0408 6.83909C14.2394 7.31905 14.7896 7.54711 15.2695 7.34848C15.7495 7.14986 15.9775 6.59976 15.7789 6.11981L14.0408 6.83909ZM8.80872 17.9836C9.32528 17.9289 9.6997 17.4659 9.64504 16.9494C9.59036 16.4327 9.1273 16.0584 8.61076 16.1131L8.80872 17.9836ZM4.73118 18.3099L4.27407 17.4879C4.25177 17.5003 4.22999 17.5136 4.20878 17.5277L4.73118 18.3099ZM4.1981 20.0655L3.46679 20.6569C3.49886 20.6965 3.5341 20.7335 3.57214 20.7675L4.1981 20.0655ZM7.34647 21.5327L7.55636 20.6159C7.53059 20.61 7.50459 20.6052 7.47843 20.6015L7.34647 21.5327ZM12.5 22.0644L12.5182 21.124C12.506 21.1238 12.4939 21.1238 12.4816 21.124L12.5 22.0644ZM17.6535 21.5314L17.5203 20.6005C17.4945 20.6041 17.4688 20.6089 17.4435 20.6146L17.6535 21.5314ZM20.802 20.058L21.4291 20.7587C21.4662 20.7256 21.5006 20.6895 21.5319 20.6509L20.802 20.058ZM20.2689 18.3023L20.7929 17.5213C20.7707 17.5064 20.7478 17.4925 20.7245 17.4796L20.2689 18.3023ZM16.3877 16.1128C15.8712 16.059 15.4087 16.4342 15.3549 16.9509C15.301 17.4675 15.6762 17.9299 16.1928 17.9838L16.3877 16.1128ZM11.5595 12.0323V19.5564H13.4405V12.0323H11.5595ZM12.6023 5.96098C13.2019 5.89539 13.7921 6.23813 14.0408 6.83909L15.7789 6.11981C15.2201 4.76935 13.8533 3.93188 12.3978 4.09111L12.6023 5.96098ZM8.61076 16.1131C7.08998 16.274 5.61617 16.7415 4.27407 17.4879L5.1883 19.1317C6.31059 18.5076 7.54096 18.1177 8.80872 17.9836L8.61076 16.1131ZM4.20878 17.5277C3.71299 17.8589 3.25888 18.3061 3.07871 18.8993C2.87956 19.555 3.07628 20.174 3.46679 20.6569L4.9294 19.4741C4.87969 19.4126 4.87647 19.3864 4.87912 19.3973C4.88322 19.4142 4.88165 19.4357 4.87855 19.446C4.87743 19.4496 4.88657 19.4165 4.9444 19.3501C5.00283 19.2829 5.10023 19.1943 5.25359 19.092L4.20878 17.5277ZM3.57214 20.7675C4.59738 21.6817 5.86271 22.2723 7.21451 22.4639L7.47843 20.6015C6.49809 20.4625 5.57551 20.0336 4.82405 19.3635L3.57214 20.7675ZM7.13659 22.4495C8.90241 22.8537 10.7091 23.0401 12.5184 23.0047L12.4816 21.124C10.8261 21.1565 9.17266 20.9859 7.55636 20.6159L7.13659 22.4495ZM12.4818 23.0048C14.2911 23.0398 16.0979 22.8529 17.8637 22.4481L17.4435 20.6146C15.8272 20.9851 14.1737 21.1561 12.5182 21.124L12.4818 23.0048ZM17.7868 22.4624C19.1394 22.2688 20.4048 21.6756 21.4291 20.7587L20.1747 19.3571C19.4238 20.0291 18.5012 20.46 17.5203 20.6005L17.7868 22.4624ZM21.5319 20.6509C21.9238 20.1683 22.1204 19.5493 21.9213 18.8936C21.7414 18.3012 21.288 17.8535 20.7929 17.5213L19.7448 19.0833C19.8985 19.1864 19.9961 19.2755 20.055 19.3432C20.1131 19.4103 20.1225 19.4437 20.1214 19.4404C20.1184 19.4303 20.1168 19.4084 20.121 19.3908C20.1239 19.379 20.121 19.4044 20.0719 19.4651L21.5319 20.6509ZM20.7245 17.4796C19.3818 16.7361 17.9079 16.2712 16.3877 16.1128L16.1928 17.9838C17.4601 18.1157 18.6905 18.5034 19.8132 19.1251L20.7245 17.4796Z" fill="white"/>
</svg>
