<svg width="24" height="24" viewBox="0 0 24 24" fill="none" xmlns="http://www.w3.org/2000/svg">
<path fill-rule="evenodd" clip-rule="evenodd" d="M21.6257 4.25962C21.8686 4.00815 22.003 3.67134 21.9999 3.32175C21.9969 2.97215 21.8567 2.63774 21.6095 2.39052C21.3623 2.14331 21.0278 2.00309 20.6783 2.00005C20.3287 1.99701 19.9919 2.13141 19.7404 2.37428L12.0164 10.0983L4.29238 2.37428C4.04091 2.13141 3.70411 1.99701 3.35452 2.00005C3.00492 2.00309 2.6705 2.14331 2.42329 2.39052C2.17608 2.63774 2.03586 2.97215 2.03282 3.32175C2.02978 3.67134 2.16417 4.00815 2.40705 4.25962L10.1311 11.9836L2.40705 19.7076C2.2797 19.8306 2.17813 19.9777 2.10825 20.1404C2.03837 20.3031 2.00159 20.478 2.00005 20.6551C1.99851 20.8321 2.03225 21.0077 2.09929 21.1716C2.16633 21.3354 2.26533 21.4843 2.39052 21.6095C2.51571 21.7347 2.66458 21.8337 2.82845 21.9007C2.99231 21.9678 3.16788 22.0015 3.34492 21.9999C3.52196 21.9984 3.69692 21.9616 3.85959 21.8917C4.02226 21.8219 4.16939 21.7203 4.29238 21.5929L12.0164 13.8689L19.7404 21.5929C19.9919 21.8358 20.3287 21.9702 20.6783 21.9672C21.0278 21.9641 21.3623 21.8239 21.6095 21.5767C21.8567 21.3295 21.9969 20.9951 21.9999 20.6455C22.003 20.2959 21.8686 19.9591 21.6257 19.7076L13.9017 11.9836L21.6257 4.25962Z" fill="white"/>
</svg>
