<svg width="24" height="24" viewBox="0 0 24 24" fill="none" xmlns="http://www.w3.org/2000/svg">
<path fill-rule="evenodd" clip-rule="evenodd" d="M18.738 6.58173C18.908 6.4057 19.0021 6.16994 19 5.92522C18.9978 5.68051 18.8997 5.44641 18.7266 5.27337C18.5536 5.10032 18.3195 5.00216 18.0748 5.00004C17.8301 4.99791 17.5943 5.09198 17.4183 5.262L12.0115 10.6688L6.60467 5.262C6.42864 5.09198 6.19288 4.99791 5.94816 5.00004C5.70344 5.00216 5.46935 5.10032 5.29631 5.27337C5.12326 5.44641 5.0251 5.68051 5.02297 5.92522C5.02085 6.16994 5.11492 6.4057 5.28494 6.58173L10.6917 11.9885L5.28494 17.3953C5.19579 17.4814 5.12469 17.5844 5.07577 17.6983C5.02686 17.8122 5.00111 17.9346 5.00004 18.0586C4.99896 18.1825 5.02257 18.3054 5.0695 18.4201C5.11643 18.5348 5.18573 18.639 5.27337 18.7266C5.361 18.8143 5.46521 18.8836 5.57991 18.9305C5.69462 18.9774 5.81752 19.001 5.94144 19C6.06537 18.9989 6.18784 18.9731 6.30171 18.9242C6.41558 18.8753 6.51857 18.8042 6.60467 18.7151L12.0115 13.3083L17.4183 18.7151C17.5943 18.8851 17.8301 18.9792 18.0748 18.977C18.3195 18.9749 18.5536 18.8767 18.7266 18.7037C18.8997 18.5306 18.9978 18.2966 19 18.0518C19.0021 17.8071 18.908 17.5714 18.738 17.3953L13.3312 11.9885L18.738 6.58173Z" fill="white"/>
</svg>
