<svg width="24" height="24" viewBox="0 0 24 24" fill="none" xmlns="http://www.w3.org/2000/svg">
<path fill-rule="evenodd" clip-rule="evenodd" d="M21.625 15.7496C21.625 16.6639 20.5752 17.6245 19.5625 17.6245H14.0625L12 20.1244L9.9375 17.6245H4.4375C3.42481 17.6245 2.375 16.6639 2.375 15.7496V5.1249C2.375 4.21056 3.42481 3.24996 4.4375 3.24996H19.5625C20.5752 3.24996 21.625 4.21056 21.625 5.1249V15.7496ZM19.3336 2H4.66644C2.64176 2 1 3.48183 1 5.31052V15.8664C1 17.6939 2.41281 18.8745 4.4375 18.8745H9.00182L12 22L14.9982 18.8745H19.5625C21.5872 18.8745 23 17.6939 23 15.8664V5.31052C23 3.48183 21.3582 2 19.3336 2Z" fill="white" stroke="white"/>
</svg>
