<svg width="24" height="24" viewBox="0 0 24 24" fill="none" xmlns="http://www.w3.org/2000/svg">
<path d="M2 9.33333H22M6.44444 3V5.11111M17.5556 3V5.11111M5.33333 12.5H9.77778V16.7222H5.33333V12.5ZM5.55556 22H18.4444C19.689 22 20.3113 22 20.7867 21.7699C21.2048 21.5675 21.5448 21.2445 21.7578 20.8473C22 20.3958 22 19.8045 22 18.6222V8.48889C22 7.30655 22 6.71539 21.7578 6.2638C21.5448 5.86656 21.2048 5.5436 20.7867 5.34121C20.3113 5.11111 19.689 5.11111 18.4444 5.11111H5.55556C4.311 5.11111 3.68871 5.11111 3.21336 5.34121C2.79521 5.5436 2.45526 5.86656 2.24221 6.2638C2 6.71539 2 7.30655 2 8.48889V18.6222C2 19.8045 2 20.3958 2.24221 20.8473C2.45526 21.2445 2.79521 21.5675 3.21336 21.7699C3.68871 22 4.31099 22 5.55556 22Z" stroke="white" stroke-width="2" stroke-linecap="round" stroke-linejoin="round"/>
</svg>
