<svg width="24" height="24" viewBox="0 0 24 24" fill="none" xmlns="http://www.w3.org/2000/svg">
<path d="M16.6168 1H7.39419C3.38819 1 1 3.387 1 7.391V16.598C1 20.613 3.38819 23 7.39419 23H16.6058C20.6118 23 23 20.613 23 16.609V7.391C23.011 3.387 20.6228 1 16.6168 1ZM10.8499 18.061C10.5307 18.38 9.92545 18.688 9.48523 18.754L6.77788 19.139C6.67883 19.15 6.57978 19.161 6.48073 19.161C6.02951 19.161 5.6113 19.007 5.31415 18.71C4.95097 18.347 4.79689 17.819 4.88494 17.236L5.27013 14.53C5.33616 14.079 5.63331 13.485 5.96347 13.166L10.8719 8.26C10.96 8.491 11.048 8.722 11.1691 8.986C11.2791 9.217 11.4002 9.459 11.5322 9.679C11.6423 9.866 11.7634 10.042 11.8624 10.174C11.9835 10.361 12.1265 10.537 12.2146 10.636C12.2696 10.713 12.3136 10.768 12.3356 10.79C12.6108 11.12 12.9299 11.428 13.2051 11.659C13.2821 11.736 13.3261 11.78 13.3482 11.791C13.5132 11.923 13.6783 12.055 13.8214 12.154C13.9975 12.286 14.1736 12.407 14.3607 12.506C14.5808 12.638 14.8229 12.759 15.065 12.88C15.3181 12.99 15.5492 13.089 15.7804 13.166L10.8499 18.061ZM17.9154 10.999L16.9029 12.022C16.8369 12.088 16.7488 12.121 16.6608 12.121C16.6278 12.121 16.5838 12.121 16.5618 12.11C14.3276 11.472 12.5448 9.69 11.9064 7.457C11.8734 7.336 11.9064 7.204 11.9945 7.127L13.018 6.104C14.6908 4.432 16.2866 4.465 17.9264 6.104C18.7629 6.94 19.1701 7.743 19.1701 8.579C19.159 9.371 18.7518 10.163 17.9154 10.999Z" fill="white"/>
</svg>
