<svg width="24" height="24" viewBox="0 0 24 24" fill="none" xmlns="http://www.w3.org/2000/svg">
<path d="M3 12C3 11.7083 3.12511 11.4285 3.34781 11.2222C3.57051 11.0159 3.87256 10.9 4.1875 10.9H13.2006L10.4694 8.381C10.3581 8.27874 10.2697 8.15708 10.2094 8.02303C10.1492 7.88899 10.1181 7.74521 10.1181 7.6C10.1181 7.45479 10.1492 7.31101 10.2094 7.17697C10.2697 7.04292 10.3581 6.92126 10.4694 6.819C10.5798 6.7159 10.7111 6.63406 10.8558 6.57822C11.0005 6.52237 11.1557 6.49362 11.3125 6.49362C11.4693 6.49362 11.6245 6.52237 11.7692 6.57822C11.9139 6.63406 12.0452 6.7159 12.1556 6.819L16.9056 11.219C17.0137 11.3236 17.0985 11.447 17.155 11.582C17.2738 11.8498 17.2738 12.1502 17.155 12.418C17.0985 12.553 17.0137 12.6764 16.9056 12.781L12.1556 17.181C12.0449 17.2836 11.9135 17.3649 11.7688 17.4204C11.6241 17.4759 11.4691 17.5045 11.3125 17.5045C11.1559 17.5045 11.0009 17.4759 10.8562 17.4204C10.7115 17.3649 10.5801 17.2836 10.4694 17.181C10.3587 17.0784 10.2708 16.9567 10.2109 16.8227C10.151 16.6887 10.1201 16.545 10.1201 16.4C10.1201 16.255 10.151 16.1113 10.2109 15.9773C10.2708 15.8433 10.3587 15.7216 10.4694 15.619L13.2006 13.1H4.1875C3.87256 13.1 3.57051 12.9841 3.34781 12.7778C3.12511 12.5715 3 12.2917 3 12ZM18.4375 23H6.5625C5.61767 23 4.71153 22.6523 4.04343 22.0335C3.37533 21.4146 3 20.5752 3 19.7V16.4C3 16.1083 3.12511 15.8285 3.34781 15.6222C3.57051 15.4159 3.87256 15.3 4.1875 15.3C4.50244 15.3 4.80449 15.4159 5.02719 15.6222C5.24989 15.8285 5.375 16.1083 5.375 16.4V19.7C5.375 19.9917 5.50011 20.2715 5.72281 20.4778C5.94551 20.6841 6.24756 20.8 6.5625 20.8H18.4375C18.7524 20.8 19.0545 20.6841 19.2772 20.4778C19.4999 20.2715 19.625 19.9917 19.625 19.7V4.3C19.625 4.00826 19.4999 3.72847 19.2772 3.52218C19.0545 3.31589 18.7524 3.2 18.4375 3.2H6.5625C6.24756 3.2 5.94551 3.31589 5.72281 3.52218C5.50011 3.72847 5.375 4.00826 5.375 4.3V7.6C5.375 7.89174 5.24989 8.17153 5.02719 8.37782C4.80449 8.58411 4.50244 8.7 4.1875 8.7C3.87256 8.7 3.57051 8.58411 3.34781 8.37782C3.12511 8.17153 3 7.89174 3 7.6V4.3C3 3.42479 3.37533 2.58542 4.04343 1.96655C4.71153 1.34768 5.61767 1 6.5625 1H18.4375C19.3823 1 20.2885 1.34768 20.9566 1.96655C21.6247 2.58542 22 3.42479 22 4.3V19.7C22 20.5752 21.6247 21.4146 20.9566 22.0335C20.2885 22.6523 19.3823 23 18.4375 23Z" fill="white"/>
</svg>
