<svg width="24" height="24" viewBox="0 0 24 24" fill="none" xmlns="http://www.w3.org/2000/svg">
<path d="M4 20.8V11.2C4 10.5372 4.59696 10 5.33333 10H18.6667C19.4031 10 20 10.5372 20 11.2V20.8C20 21.4628 19.4031 22 18.6667 22H5.33333C4.59696 22 4 21.4628 4 20.8Z" stroke="white" stroke-width="2" stroke-linejoin="round"/>
<path d="M12 19C13.1046 19 14 17.8807 14 16.5C14 15.1193 13.1046 14 12 14C10.8954 14 10 15.1193 10 16.5C10 17.8807 10.8954 19 12 19Z" stroke="white" stroke-width="2" stroke-linejoin="round"/>
<path d="M6 9V6.33333C6 3.38781 8.68629 1 12 1C15.3137 1 18 3.38781 18 6.33333V9H6Z" stroke="white" stroke-width="2" stroke-linejoin="round"/>
</svg>
