<svg width="24" height="24" viewBox="0 0 24 24" fill="none" xmlns="http://www.w3.org/2000/svg">
<path d="M5.85 15.6667C4.0912 16.3373 3 17.2716 3 18.3052C3 20.3458 7.2533 22 12.5 22C17.7467 22 22 20.3458 22 18.3052C22 17.2716 20.9088 16.3373 19.15 15.6667M12.5 9.33333H12.5106M18.8333 9.33333C18.8333 13.6228 14.0833 15.6667 12.5 18.8333C10.9167 15.6667 6.16667 13.6228 6.16667 9.33333C6.16667 5.83553 9.0022 3 12.5 3C15.9978 3 18.8333 5.83553 18.8333 9.33333ZM13.5556 9.33333C13.5556 9.9163 13.083 10.3889 12.5 10.3889C11.917 10.3889 11.4444 9.9163 11.4444 9.33333C11.4444 8.75037 11.917 8.27778 12.5 8.27778C13.083 8.27778 13.5556 8.75037 13.5556 9.33333Z" stroke="white" stroke-width="2" stroke-linecap="round" stroke-linejoin="round"/>
</svg>
