<svg width="31" height="31" viewBox="0 0 31 31" fill="none" xmlns="http://www.w3.org/2000/svg">
<g clip-path="url(#clip0_1811_523)">
<path d="M22.2812 7.75C22.2812 11.16 19.7528 13.9888 16.4688 14.4538V25.1875C16.4688 25.7203 16.0328 26.1562 15.5 26.1562C14.9672 26.1562 14.5312 25.7203 14.5312 25.1875V14.4538C11.2472 13.9888 8.71875 11.16 8.71875 7.75C8.71875 4.01063 11.7606 0.96875 15.5 0.96875C19.2394 0.96875 22.2812 4.01063 22.2812 7.75Z" fill="#D67C3C"/>
<path d="M15.5 30.0313C8.45573 30.0313 0.96875 27.9941 0.96875 24.2188C0.96875 21.4914 5.11151 19.2919 11.5233 18.6149C12.0611 18.561 12.5322 18.9451 12.5885 19.4767C12.6443 20.0089 12.2589 20.4857 11.7267 20.542C6.27847 21.1168 2.90625 22.8981 2.90625 24.2188C2.90625 25.7988 7.81248 28.0938 15.5 28.0938C23.1875 28.0938 28.0938 25.7988 28.0938 24.2188C28.0938 22.8981 24.7215 21.1168 19.2733 20.5421C18.7411 20.4858 18.3556 20.0089 18.4115 19.4768C18.4673 18.9452 18.937 18.562 19.4767 18.615C25.8885 19.2919 30.0312 21.4914 30.0312 24.2188C30.0312 27.9941 22.5443 30.0313 15.5 30.0313Z" fill="#D67C3C"/>
</g>
<defs>
<clipPath id="clip0_1811_523">
<rect width="31" height="31" fill="white"/>
</clipPath>
</defs>
</svg>
