<svg width="24" height="24" viewBox="0 0 24 24" fill="none" xmlns="http://www.w3.org/2000/svg">
<path fill-rule="evenodd" clip-rule="evenodd" d="M20 6C20.5523 6 21 6.41574 21 6.92857C21 7.4414 20.5523 7.85714 20 7.85714H4C3.4477 7.85714 3 7.4414 3 6.92857C3 6.41574 3.4477 6 4 6H20ZM21 12.5C21 11.9871 20.5523 11.5714 20 11.5714H4C3.4477 11.5714 3 11.9871 3 12.5C3 13.0128 3.4477 13.4286 4 13.4286H20C20.5523 13.4286 21 13.0128 21 12.5ZM21 18.0714C21 17.5586 20.5523 17.1429 20 17.1429H4C3.4477 17.1429 3 17.5586 3 18.0714C3 18.5843 3.4477 19 4 19H20C20.5523 19 21 18.5843 21 18.0714Z" fill="white"/>
</svg>
