<svg width="24" height="24" viewBox="0 0 24 24" fill="none" xmlns="http://www.w3.org/2000/svg">
<path fill-rule="evenodd" clip-rule="evenodd" d="M22.6667 3C23.403 3 24 3.57564 24 4.28571C24 4.99579 23.403 5.57143 22.6667 5.57143H1.33333C0.596933 5.57143 -7.15256e-07 4.99579 -7.15256e-07 4.28571C-7.15256e-07 3.57564 0.596933 3 1.33333 3H22.6667ZM24 12C24 11.2899 23.403 10.7143 22.6667 10.7143H1.33333C0.596933 10.7143 -7.15256e-07 11.2899 -7.15256e-07 12C-7.15256e-07 12.7101 0.596933 13.2857 1.33333 13.2857H22.6667C23.403 13.2857 24 12.7101 24 12ZM24 19.7143C24 19.0042 23.403 18.4286 22.6667 18.4286H1.33333C0.596933 18.4286 -7.15256e-07 19.0042 -7.15256e-07 19.7143C-7.15256e-07 20.4244 0.596933 21 1.33333 21H22.6667C23.403 21 24 20.4244 24 19.7143Z" fill="white"/>
</svg>
