<svg width="24" height="24" viewBox="0 0 24 24" fill="none" xmlns="http://www.w3.org/2000/svg">
<path d="M1 12.5C1 8.49306 1 6.4896 2.28873 5.24479C3.57747 4 5.65164 4 9.8 4H14.2C18.3483 4 20.4226 4 21.7112 5.24479C23 6.4896 23 8.49306 23 12.5C23 16.5069 23 18.5105 21.7112 19.7552C20.4226 21 18.3483 21 14.2 21H9.8C5.65164 21 3.57747 21 2.28873 19.7552C1 18.5105 1 16.5069 1 12.5Z" stroke="white" stroke-width="2"/>
<path d="M12.0005 10V15M10.0002 11.25L14 13.75M13.9998 11.25L10 13.75" stroke="white" stroke-linecap="round"/>
<path d="M6.00057 10V15M4.00027 11.25L8 13.75M7.99972 11.25L4 13.75" stroke="white" stroke-linecap="round"/>
<path d="M17.5005 10V15M16.0002 11.25L19 13.75M18.9998 11.25L16 13.75" stroke="white" stroke-linecap="round"/>
</svg>
