<svg width="24" height="24" viewBox="0 0 24 24" fill="none" xmlns="http://www.w3.org/2000/svg">
    <path d="M12.0005 10V14M10.0002 11L14 13M13.9998 11L10 13" stroke="white" stroke-linecap="round" />
    <path d="M6.00057 10V14M4.00027 11L8 13M7.99972 11L4 13" stroke="white" stroke-linecap="round" />
    <path d="M18.0006 10V14M16.0002 11L20 13M19.9998 11L16 13" stroke="white" stroke-linecap="round" />
    <path d="M19.7778 5H4.22222C2.99492 5 2 5.89543 2 7V17C2 18.1046 2.99492 19 4.22222 19H19.7778C21.0051 19 22 18.1046 22 17V7C22 5.89543 21.0051 5 19.7778 5Z" stroke="white" stroke-width="2" stroke-linecap="round" />
</svg>
