<svg width="32" height="32" viewBox="0 0 32 32" fill="none" xmlns="http://www.w3.org/2000/svg">
    <path fill-rule="evenodd" clip-rule="evenodd" d="M11.876 15.452C11.876 17.7823 13.765 19.6714 16.0953 19.6714C18.4257 19.6714 20.3147 17.7823 20.3147 15.452C20.3147 13.1217 18.4257 11.2327 16.0953 11.2327C13.765 11.2327 11.876 13.1217 11.876 15.452ZM16.0953 17.9836C14.6972 17.9836 13.5637 16.8502 13.5637 15.452C13.5637 14.0539 14.6972 12.9204 16.0953 12.9204C17.4935 12.9204 18.6269 14.0539 18.6269 15.452C18.6269 16.8502 17.4935 17.9836 16.0953 17.9836Z" fill="white" stroke="white" stroke-width="0.5" />
    <path fill-rule="evenodd" clip-rule="evenodd" d="M4 15.4806C3.99999 15.9806 3.99999 16.3982 4.02337 16.7409C4.04772 17.0977 4.1002 17.4347 4.23553 17.7614C4.54957 18.5196 5.15193 19.1219 5.9101 19.436C6.3048 19.5995 6.72078 19.6437 7.17291 19.6607C7.53637 19.6742 7.83963 19.8577 7.99591 20.1284C8.1522 20.3991 8.15942 20.7534 7.98946 21.075C7.77804 21.475 7.60838 21.8574 7.55262 22.2809C7.44551 23.0945 7.66599 23.9174 8.16556 24.5684C8.38085 24.849 8.64647 25.063 8.94329 25.2624C9.22841 25.4541 9.58997 25.6628 10.0231 25.9128L10.0723 25.9413C10.5054 26.1913 10.8669 26.4001 11.1754 26.5512C11.4966 26.7085 11.8147 26.8315 12.1653 26.8777C12.9789 26.9848 13.8018 26.7643 14.4529 26.2648C14.7917 26.0047 15.0381 25.6667 15.2787 25.2836C15.4723 24.9756 15.7828 24.8046 16.0955 24.8046C16.4081 24.8047 16.7186 24.9756 16.9121 25.2836C17.1528 25.6667 17.3992 26.0048 17.7381 26.2649C18.3891 26.7644 19.212 26.9849 20.0256 26.8778C20.3762 26.8317 20.6944 26.7086 21.0155 26.5513C21.324 26.4002 21.6855 26.1914 22.1186 25.9414L22.1679 25.913C22.601 25.6629 22.9625 25.4542 23.2476 25.2626C23.5444 25.0631 23.8101 24.8491 24.0253 24.5686C24.5249 23.9175 24.7454 23.0947 24.6383 22.2811C24.5825 21.8575 24.4129 21.4751 24.2015 21.0751C24.0315 20.7535 24.0387 20.3992 24.1951 20.1284C24.3514 19.8577 24.6546 19.6742 25.0181 19.6607C25.4702 19.6437 25.8862 19.5995 26.2809 19.436C27.039 19.1219 27.6415 18.5196 27.9555 17.7614C28.0908 17.4347 28.1433 17.0977 28.1676 16.7409C28.191 16.3982 28.191 15.9806 28.191 15.4806L28.191 15.4238C28.191 14.9237 28.191 14.5062 28.1676 14.1634C28.1433 13.8066 28.0908 13.4696 27.9555 13.1429C27.6415 12.3847 27.039 11.7823 26.2809 11.4683C25.8862 11.3048 25.4702 11.2606 25.018 11.2437C24.6546 11.2301 24.3514 11.0467 24.195 10.776C24.0387 10.5053 24.0315 10.1508 24.2014 9.82926C24.4128 9.42927 24.5825 9.04693 24.6382 8.62331C24.7453 7.80971 24.5249 6.98688 24.0253 6.33586C23.8099 6.05524 23.5444 5.84135 23.2476 5.64186C22.9625 5.45024 22.601 5.24152 22.1679 4.99151L22.1186 4.96305C21.6855 4.71304 21.3239 4.5042 21.0154 4.3531C20.6943 4.1958 20.3762 4.07282 20.0256 4.02657C19.2119 3.91946 18.389 4.13999 17.738 4.63956C17.3991 4.89959 17.1528 5.2377 16.9121 5.6207C16.7186 5.92877 16.4081 6.09969 16.0954 6.09969C15.7828 6.09969 15.4724 5.92877 15.2788 5.62082C15.0382 5.23759 14.7919 4.89948 14.4529 4.63945C13.8018 4.13988 12.979 3.91935 12.1654 4.02646C11.8148 4.07271 11.4967 4.19569 11.1755 4.35298C10.867 4.50409 10.5055 4.71281 10.0724 4.96294L10.0232 4.99129C9.59009 5.24141 9.22849 5.45013 8.94336 5.64174C8.64655 5.84124 8.38093 6.05513 8.16563 6.33574C7.66607 6.98676 7.44558 7.80959 7.5527 8.62331C7.60846 9.04682 7.77809 9.42915 7.98951 9.82915C8.15949 10.1507 8.15225 10.5051 7.99594 10.7759C7.83965 11.0466 7.53635 11.2301 7.17286 11.2437C6.72073 11.2606 6.30478 11.3048 5.9101 11.4683C5.15193 11.7823 4.54957 12.3847 4.23553 13.1429C4.1002 13.4696 4.04772 13.8066 4.02337 14.1634C3.99999 14.5062 3.99999 14.9237 4 15.4238L4 15.4806ZM5.7948 17.1156C5.75884 17.0287 5.72568 16.8969 5.7072 16.626C5.6882 16.3475 5.68774 15.9879 5.68774 15.4521C5.68774 14.9163 5.6882 14.5567 5.7072 14.2784C5.72568 14.0074 5.75884 13.8756 5.7948 13.7888C5.93755 13.4442 6.21135 13.1703 6.55597 13.0276C6.66468 12.9825 6.83414 12.9453 7.23593 12.9302C8.12749 12.8969 8.98592 12.4367 9.45758 11.6197C9.92924 10.8029 9.89855 9.82926 9.48165 9.04052C9.29377 8.68508 9.24136 8.51957 9.22601 8.40301C9.17732 8.03317 9.27754 7.65916 9.50461 7.36324C9.56181 7.28864 9.65944 7.19402 9.88478 7.04257C10.1164 6.88685 10.4276 6.70671 10.8916 6.43881C11.3556 6.17091 11.6673 5.99144 11.9179 5.86869C12.1617 5.74931 12.2925 5.71207 12.3857 5.6998C12.7555 5.65108 13.1295 5.75133 13.4255 5.97839C13.5188 6.05007 13.6359 6.17811 13.8498 6.5187C14.3245 7.27402 15.1522 7.78732 16.0954 7.78743C17.0387 7.78743 17.8665 7.27413 18.3412 6.5187C18.5551 6.17822 18.6721 6.05018 18.7655 5.97851C19.0614 5.75145 19.4354 5.6512 19.8053 5.69992C19.8984 5.71218 20.0292 5.74942 20.273 5.8688C20.5236 5.99156 20.8352 6.17102 21.2993 6.43892C21.7633 6.70682 22.0745 6.88696 22.3062 7.04268C22.5314 7.19413 22.6291 7.28876 22.6862 7.36336C22.9134 7.65927 23.0136 8.03328 22.9649 8.40312C22.9495 8.51968 22.8971 8.6852 22.7093 9.04064C22.2923 9.82937 22.2617 10.803 22.7334 11.62C23.2051 12.4367 24.0634 12.8969 24.955 12.9302C25.3568 12.9453 25.5263 12.9825 25.6351 13.0276C25.9796 13.1703 26.2535 13.4442 26.3962 13.7888C26.4321 13.8756 26.4653 14.0074 26.4838 14.2784C26.5028 14.5567 26.5032 14.9163 26.5032 15.4521C26.5032 15.9879 26.5028 16.3475 26.4838 16.626C26.4653 16.8969 26.4321 17.0287 26.3962 17.1156C26.2535 17.4601 25.9796 17.734 25.6351 17.8767C25.5263 17.9217 25.3568 17.9591 24.955 17.9741C24.0636 18.0074 23.2051 18.4676 22.7334 19.2846C22.2617 20.1015 22.2924 21.075 22.7093 21.8638C22.8972 22.2193 22.9496 22.3847 22.9649 22.5013C23.0137 22.8712 22.9134 23.2452 22.6864 23.5411C22.6292 23.6157 22.5315 23.7103 22.3062 23.8618C22.0746 24.0174 21.7634 24.1976 21.2994 24.4655C20.8353 24.7334 20.5237 24.9128 20.2731 25.0356C20.0293 25.155 19.8984 25.1922 19.8053 25.2045C19.4354 25.2532 19.0614 25.153 18.7655 24.9259C18.6722 24.8543 18.5551 24.7262 18.3412 24.3857C17.8666 23.6303 17.0388 23.117 16.0956 23.1169C15.1522 23.1169 14.3244 23.6302 13.8497 24.3857C13.6358 24.7261 13.5187 24.8542 13.4254 24.9258C13.1295 25.1529 12.7554 25.2531 12.3856 25.2044C12.2925 25.1921 12.1616 25.1549 11.9178 25.0355C11.6672 24.9127 11.3556 24.7333 10.8915 24.4654C10.4275 24.1975 10.1163 24.0173 9.8847 23.8617C9.65937 23.7102 9.56173 23.6156 9.50454 23.541C9.27746 23.2451 9.17724 22.8711 9.22593 22.5012C9.24129 22.3846 9.2937 22.2191 9.48161 21.8636C9.89849 21.0749 9.92918 20.1014 9.45754 19.2845C8.98591 18.4676 8.12751 18.0074 7.23599 17.9741C6.83416 17.9591 6.66469 17.9217 6.55597 17.8767C6.21135 17.734 5.93755 17.4601 5.7948 17.1156Z" fill="white" stroke="white" stroke-width="0.5" />
</svg>
