<svg width="24" height="24" viewBox="0 0 24 24" fill="none" xmlns="http://www.w3.org/2000/svg">
<path d="M21.6875 6.15605C21.6875 4.44762 20.2109 3.0498 18.4062 3.0498C17.5369 3.05243 16.7039 3.38053 16.0891 3.9625C15.4744 4.54447 15.1278 5.33303 15.125 6.15605C15.125 7.86449 16.6016 9.26231 18.4062 9.26231C20.2109 9.26231 21.6875 7.86449 21.6875 6.15605ZM21.6875 18.5811C21.6875 16.8726 20.2109 15.4748 18.4062 15.4748C17.5369 15.4774 16.7039 15.8055 16.0891 16.3875C15.4744 16.9695 15.1278 17.758 15.125 18.5811C15.125 20.2895 16.6016 21.6873 18.4062 21.6873C20.2109 21.6873 21.6875 20.2895 21.6875 18.5811ZM20.375 6.15605C20.375 7.1923 19.5009 8.0198 18.4062 8.0198C17.3116 8.0198 16.4375 7.1923 16.4375 6.15605C16.4375 5.11981 17.3116 4.2923 18.4062 4.2923C19.5009 4.2923 20.375 5.11981 20.375 6.15605ZM20.375 18.5811C20.375 19.6173 19.5009 20.4448 18.4062 20.4448C17.3116 20.4448 16.4375 19.6173 16.4375 18.5811C16.4375 17.5448 17.3116 16.7173 18.4062 16.7173C19.5009 16.7173 20.375 17.5448 20.375 18.5811ZM14.7759 8.77773C14.5059 8.44794 14.2875 8.08303 14.1275 7.69427L9.07044 10.3569C8.76573 10.0159 8.38652 9.74138 7.95895 9.5524C7.53138 9.36342 7.06562 9.26445 6.59375 9.26231C5.72436 9.26493 4.89137 9.59303 4.27661 10.175C3.66186 10.757 3.31527 11.5455 3.3125 12.3686C3.3125 14.077 4.78906 15.4748 6.59375 15.4748C7.58469 15.4748 8.46669 15.0437 9.07044 14.3814L14.1275 17.0428C14.2876 16.6502 14.5081 16.2899 14.7759 15.9606L9.70963 13.2955C9.80544 13.0022 9.875 12.6928 9.875 12.3686C9.875 12.0443 9.80675 11.7361 9.70831 11.4417L14.7759 8.77773ZM8.5625 12.3686C8.5625 13.4048 7.68837 14.2323 6.59375 14.2323C5.49913 14.2323 4.625 13.4048 4.625 12.3686C4.625 11.3323 5.49913 10.5048 6.59375 10.5048C7.68837 10.5048 8.5625 11.3323 8.5625 12.3686Z" fill="#D49563"/>
</svg>
