<svg width="24" height="24" viewBox="0 0 24 24" fill="none" xmlns="http://www.w3.org/2000/svg">
<path d="M23.2185 17.0001L15.8621 3.75864C14.8736 1.97702 13.5058 1 12 1C10.4943 1 9.1264 1.97702 8.13789 3.75864L0.781521 17.0001C-0.149519 18.6898 -0.252968 20.3105 0.494163 21.5863C1.24129 22.8622 2.71257 23.5634 4.64361 23.5634H19.3564C21.2874 23.5634 22.7587 22.8622 23.5058 21.5863C24.253 20.3105 24.1495 18.6783 23.2185 17.0001ZM11.1379 9.04603C11.1379 8.57476 11.5287 8.18395 12 8.18395C12.4713 8.18395 12.8621 8.57476 12.8621 9.04603V14.7932C12.8621 15.2645 12.4713 15.6553 12 15.6553C11.5287 15.6553 11.1379 15.2645 11.1379 14.7932V9.04603ZM12.8161 19.0576C12.7586 19.1036 12.7012 19.1495 12.6437 19.1955C12.5747 19.2415 12.5058 19.276 12.4368 19.299C12.3678 19.3334 12.2989 19.3564 12.2184 19.3679C12.1494 19.3794 12.069 19.3909 12 19.3909C11.9311 19.3909 11.8506 19.3794 11.7701 19.3679C11.7012 19.3564 11.6322 19.3334 11.5632 19.299C11.4943 19.276 11.4253 19.2415 11.3563 19.1955C11.2989 19.1495 11.2414 19.1036 11.1839 19.0576C10.977 18.8392 10.8506 18.5403 10.8506 18.2415C10.8506 17.9426 10.977 17.6438 11.1839 17.4254C11.2414 17.3794 11.2989 17.3334 11.3563 17.2875C11.4253 17.2415 11.4943 17.207 11.5632 17.184C11.6322 17.1495 11.7012 17.1265 11.7701 17.115C11.9196 17.0806 12.0805 17.0806 12.2184 17.115C12.2989 17.1265 12.3678 17.1495 12.4368 17.184C12.5058 17.207 12.5747 17.2415 12.6437 17.2875C12.7012 17.3334 12.7586 17.3794 12.8161 17.4254C13.023 17.6438 13.1494 17.9426 13.1494 18.2415C13.1494 18.5403 13.023 18.8392 12.8161 19.0576Z" fill="#DEC056"/>
<path d="M23.2185 17.0001L15.8621 3.75864C14.8736 1.97702 13.5058 1 12 1C10.4943 1 9.1264 1.97702 8.13789 3.75864L0.781521 17.0001C-0.149519 18.6898 -0.252968 20.3105 0.494163 21.5863C1.24129 22.8622 2.71257 23.5634 4.64361 23.5634H19.3564C21.2874 23.5634 22.7587 22.8622 23.5058 21.5863C24.253 20.3105 24.1495 18.6783 23.2185 17.0001ZM11.1379 9.04603C11.1379 8.57476 11.5287 8.18395 12 8.18395C12.4713 8.18395 12.8621 8.57476 12.8621 9.04603V14.7932C12.8621 15.2645 12.4713 15.6553 12 15.6553C11.5287 15.6553 11.1379 15.2645 11.1379 14.7932V9.04603ZM12.8161 19.0576C12.7586 19.1036 12.7012 19.1495 12.6437 19.1955C12.5747 19.2415 12.5058 19.276 12.4368 19.299C12.3678 19.3334 12.2989 19.3564 12.2184 19.3679C12.1494 19.3794 12.069 19.3909 12 19.3909C11.9311 19.3909 11.8506 19.3794 11.7701 19.3679C11.7012 19.3564 11.6322 19.3334 11.5632 19.299C11.4943 19.276 11.4253 19.2415 11.3563 19.1955C11.2989 19.1495 11.2414 19.1036 11.1839 19.0576C10.977 18.8392 10.8506 18.5403 10.8506 18.2415C10.8506 17.9426 10.977 17.6438 11.1839 17.4254C11.2414 17.3794 11.2989 17.3334 11.3563 17.2875C11.4253 17.2415 11.4943 17.207 11.5632 17.184C11.6322 17.1495 11.7012 17.1265 11.7701 17.115C11.9196 17.0806 12.0805 17.0806 12.2184 17.115C12.2989 17.1265 12.3678 17.1495 12.4368 17.184C12.5058 17.207 12.5747 17.2415 12.6437 17.2875C12.7012 17.3334 12.7586 17.3794 12.8161 17.4254C13.023 17.6438 13.1494 17.9426 13.1494 18.2415C13.1494 18.5403 13.023 18.8392 12.8161 19.0576Z" fill="#DEC056"/>
</svg>
