<svg width="24" height="24" viewBox="0 0 24 24" fill="none" xmlns="http://www.w3.org/2000/svg">
<g clip-path="url(#clip0_1763_374)">
<path d="M12.0001 1C5.93462 1 1 5.93462 1 12.0001C1 18.0655 5.93462 23.0002 12.0001 23.0002C18.0655 23.0002 23.0002 18.0655 23.0002 12.0001C23.0002 5.93462 18.0654 1 12.0001 1ZM12.0001 20.6833C7.21202 20.6833 3.31665 16.7881 3.31665 12.0001C3.31665 7.21202 7.21202 3.31665 12.0001 3.31665C16.7881 3.31665 20.6835 7.21202 20.6835 12.0001C20.6835 16.7881 16.7881 20.6833 12.0001 20.6833Z" fill="white"/>
<path d="M16.587 12.1226H12.0774V8.21643C12.0774 7.57657 11.5589 7.05811 10.9191 7.05811C10.2792 7.05811 9.76074 7.57657 9.76074 8.21643V13.2809C9.76074 13.9208 10.2792 14.4393 10.9191 14.4393H16.587C17.2268 14.4393 17.7453 13.9208 17.7453 13.2809C17.7453 12.6411 17.2267 12.1226 16.587 12.1226Z" fill="white"/>
</g>
<defs>
<clipPath id="clip0_1763_374">
<rect width="22" height="22" fill="white" transform="translate(1 1)"/>
</clipPath>
</defs>
</svg>
