<svg width="24" height="24" viewBox="0 0 24 24" fill="none" xmlns="http://www.w3.org/2000/svg">
<mask id="path-1-outside-1_1821_683" maskUnits="userSpaceOnUse" x="3" y="1" width="19" height="22" fill="black">
<rect fill="white" x="3" y="1" width="19" height="22"/>
<path d="M11.1152 22V4.836H4.3952V2.4H20.6072V4.836H13.8872V22H11.1152Z"/>
</mask>
<path d="M11.1152 22V4.836H4.3952V2.4H20.6072V4.836H13.8872V22H11.1152Z" fill="white"/>
<path d="M11.1152 22H10.6152V22.5H11.1152V22ZM11.1152 4.836H11.6152V4.336H11.1152V4.836ZM4.3952 4.836H3.8952V5.336H4.3952V4.836ZM4.3952 2.4V1.9H3.8952V2.4H4.3952ZM20.6072 2.4H21.1072V1.9H20.6072V2.4ZM20.6072 4.836V5.336H21.1072V4.836H20.6072ZM13.8872 4.836V4.336H13.3872V4.836H13.8872ZM13.8872 22V22.5H14.3872V22H13.8872ZM11.6152 22V4.836H10.6152V22H11.6152ZM11.1152 4.336H4.3952V5.336H11.1152V4.336ZM4.8952 4.836V2.4H3.8952V4.836H4.8952ZM4.3952 2.9H20.6072V1.9H4.3952V2.9ZM20.1072 2.4V4.836H21.1072V2.4H20.1072ZM20.6072 4.336H13.8872V5.336H20.6072V4.336ZM13.3872 4.836V22H14.3872V4.836H13.3872ZM13.8872 21.5H11.1152V22.5H13.8872V21.5Z" fill="white" mask="url(#path-1-outside-1_1821_683)"/>
</svg>
