<svg width="456" height="456" viewBox="0 0 456 456" fill="none" xmlns="http://www.w3.org/2000/svg">
<path fill-rule="evenodd" clip-rule="evenodd" d="M283.091 165.449C284.316 168.175 284.701 169.856 284.9 173.343C285.25 179.456 284.9 180.857 280.209 188.707C274.293 198.605 274.596 201.895 274.596 218.017C274.596 226.336 274.758 232.326 273.637 237.628C271.514 247.67 267.428 255.527 260.487 262.912C253.783 270.045 245.225 275.411 237.364 277.414C235.439 277.904 234.822 278.39 233.572 280.403C231.214 284.199 228.401 287.006 224.512 289.447C219.872 292.359 215.559 293.795 210.949 293.96C207.728 294.076 207.24 293.975 207.075 293.157C206.971 292.642 207.232 291.834 207.654 291.362C209.631 289.149 213.24 279.487 212.406 278.642C212.264 278.498 209.673 277.521 206.647 276.469C200.495 274.33 195.26 271.424 190.812 267.677C189.172 266.295 187.69 265.305 187.52 265.477C187.044 265.959 187.158 268.741 187.741 270.866C188.029 271.918 189.049 273.817 190.006 275.088C190.964 276.358 191.627 277.716 191.48 278.106C190.811 279.869 177.114 285.115 173.18 285.115C171.456 285.115 170.992 283.39 171 277.001C171.006 272.331 171.218 270.908 172.428 267.386C174.218 262.183 176.798 258.228 180.863 254.461C184.96 250.661 189.289 248.515 196.703 246.608C206.471 244.095 212.29 241.495 219.302 236.508C234.878 225.43 244.26 208.685 245.953 188.941C246.543 182.063 247.448 179.569 250.62 176.087C253.666 172.742 256.827 171.264 262.734 170.425C265.444 170.04 268.66 169.329 269.879 168.845C272.73 167.714 276.823 165.067 278.393 163.338C280.404 161.125 281.337 161.543 283.091 165.449ZM272.467 263.984C273.334 265.47 276.735 268.802 280.174 271.534C281.985 272.972 282.069 273.151 281.303 273.927C280.847 274.388 278.931 275.305 277.046 275.964C272.554 277.534 263.088 277.666 258.54 276.22C256.938 275.711 255.626 275.121 255.626 274.908C255.626 274.695 257.29 273.454 259.323 272.15C261.356 270.846 264.834 268.164 267.051 266.19C269.269 264.215 271.205 262.587 271.354 262.571C271.503 262.555 272.004 263.191 272.467 263.984Z" fill="#D49563"/>
</svg>
